# xmcd
#
# Track frame offsets:
#	150
#	21506
#	40408
#	58087
#	75667
#	98556
#	120006
#	146382
#
# Disc length: 2254 seconds
#
# Revision: 5
# Processed by: cddbd v1.5.2PL0 Copyright (c) Steve Scherf et al.
# Submitted via: EasyCDDAExtractor 12.0.0.1
#
DISCID=5d08cc08
DTITLE=Ministerio Razão De Viver - Livre
DYEAR=2010
DGENRE=Gospel
TTITLE0=Oração De Jabez
TTITLE1=Plantar E Colher
TTITLE2=Razão De Viver
TTITLE3=Vale A Pena Ter Fé
TTITLE4=Por Amor
TTITLE5=Te Agradecemos
TTITLE6=Smooth Lounge
TTITLE7=Além Do Universo
EXTD=YEAR: 2010
EXTT0=
EXTT1=
EXTT2=
EXTT3=
EXTT4=
EXTT5=
EXTT6=
EXTT7=
PLAYORDER=
